PathFileType	4	(X/Y/Z)	RBDS012\RBDS012runT25.trc
DataRate	CameraRate	NumFrames	NumMarkers	Units	OrigDataRate	OrigDataStartFrame	OrigNumFrames
150.000000	150.000000	4	33	mm	150.000000	0	4500
Frame#	Time	L.ASIS			L.Heel.Bottom			L.Heel.Lateral			L.Heel.Top			L.Iliac.Crest			L.MT1			L.MT5			L.PSIS			L.Shank.Bottom.Lateral			L.Shank.Bottom.Medial			L.Shank.Top.Lateral			L.Shank.Top.Medial			L.Thigh.Bottom.Lateral			L.Thigh.Bottom.Medial			L.Thigh.Top.Lateral			L.Thigh.Top.Medial			R.ASIS			R.ASY			R.Heel.Bottom			R.Heel.Lateral			R.Heel.Top			R.Iliac.Crest			R.MT1			R.MT5			R.PSIS			R.Shank.Bottom.Lateral			R.Shank.Bottom.Medial			R.Shank.Top.Lateral			R.Shank.Top.Medial			R.Thigh.Bottom.Lateral			R.Thigh.Bottom.Medial			R.Thigh.Top.Lateral			R.Thigh.Top.Medial			
		X1	Y1	Z1	X2	Y2	Z2	X3	Y3	Z3	X4	Y4	Z4	X5	Y5	Z5	X6	Y6	Z6	X7	Y7	Z7	X8	Y8	Z8	X9	Y9	Z9	X10	Y10	Z10	X11	Y11	Z11	X12	Y12	Z12	X13	Y13	Z13	X14	Y14	Z14	X15	Y15	Z15	X16	Y16	Z16	X17	Y17	Z17	X18	Y18	Z18	X19	Y19	Z19	X20	Y20	Z20	X21	Y21	Z21	X22	Y22	Z22	X23	Y23	Z23	X24	Y24	Z24	X25	Y25	Z25	X26	Y26	Z26	X27	Y27	Z27	X28	Y28	Z28	X29	Y29	Z29	X30	Y30	Z30	X31	Y31	Z31	X32	Y32	Z32	X33	Y33	Z33	

1	0	2105.572321668741	1031.963695203869	886.8270173319627	2170.714546402941	21.7871407008354	981.1817630278731	2190.988083871779	41.20506057524058	931.2622415381587	2161.776157891375	71.64729417149705	977.1515782790426	2060.720433125911	1111.949302349014	846.3037586478682	2375.946651648582	115.2990566293903	1002.687498388613	2344.317721068694	97.52132847332685	889.9768875141849	1949.794018209485	1097.089933088588	966.6292157814144	2201.215714878267	190.7529911655249	911.7051889033526	2160.037996897902	187.7752389975333	948.6891443601669	2179.593725256618	266.4911206972909	894.9493857407826	2140.6114526858	264.9301996766407	932.3575732601169	2161.474030171124	655.6672180073809	857.071432354487	2099.734756607382	629.497380433367	885.7264189309266	2107.357765259182	749.2201062757024	834.8465154924002	2050.69106924959	726.7090589068813	865.7836341862511	2114.893926939289	1035.162365289182	1148.666429020942	1564.950128508184	226.2541414747839	1076.652210678976	1424.889699022701	369.3119838889962	1050.828123834877	1443.569304299117	358.9619805409795	1091.317008159946	1473.71048367449	382.5084890545293	1057.294760891929	2089.980659848656	1110.290185605171	1168.618855114518	1545.757443889717	179.4709375514556	1023.281787239446	1511.91139523471	200.322221788021	1135.834019647918	1958.589993354373	1098.69247214388	1072.435255125022	1584.595529062378	379.7382015531907	1119.296783000636	1571.033408589927	415.9887385543534	1085.644034742542	1653.294545707144	425.7395413217516	1138.634861792337	1634.313541393708	462.5309572419091	1105.115629967842	1924.89761475699	638.4027154020912	1171.151888278283	1871.399140361835	655.477314107019	1123.335568682994	1941.333485344582	745.5942296370142	1186.779082212326	1890.350726002744	762.6190392114821	1142.672989282885	
2	0.006666666666666667	2105.217256649715	1026.528015658345	886.4099016154078	2156.888757070452	22.45275385074253	981.5788631988736	2178.706229297679	41.06169294000877	932.1921181659783	2151.232497228283	72.31761537376312	978.312673773679	2060.140052757521	1105.71258253867	845.8869512451907	2365.626426485165	103.1473398419382	1005.961696590476	2334.463991878433	87.88600010270203	892.9909290805111	1948.799672776757	1090.472907808686	966.3777347062041	2194.762512888877	185.7520145815572	912.8854315406647	2152.874165089064	183.6169384475362	949.020519544257	2175.138423935221	261.9558188117884	895.8687321697879	2135.355749522415	261.2259687241435	932.3980146017568	2163.13905059745	651.8151138766996	857.8331834979106	2101.122080352221	625.3757729818726	885.5918557358423	2109.109356573369	745.4698161906589	835.6633571327889	2052.145642787718	722.6608998609771	865.7779553889355	2114.996954497085	1031.140046677918	1148.697565776993	1559.265848052004	238.2935309331562	1076.232628860748	1427.099502147424	388.0741019818007	1054.055563294982	1445.380566656482	375.8537043051809	1094.162756892886	1476.38214019386	398.4212065723059	1060.088870658224	2088.673239444684	1106.440291805632	1169.329469782111	1537.499493861778	193.6077967869078	1022.178487039353	1505.53653305964	214.0558028781498	1135.407354253663	1958.018607385519	1092.821649971686	1072.172949916279	1586.441936502257	388.9132311569009	1120.839856743515	1574.503062269301	426.1696617179771	1087.792675611669	1657.226226043668	430.9991501702486	1140.14872230452	1639.963547612439	469.0493137956673	1107.229923496534	1931.607035488402	630.2604791598342	1171.720798241773	1878.375636681752	646.4521450335852	1123.023991801945	1945.934410818984	737.7210203414033	1187.380729635148	1895.010075843038	753.91200892394	1142.933841892964	
3	0.01333333333333333	2104.796860325155	1021.053534480944	885.9796915714765	2142.933719832842	23.14576873548107	981.9575183963166	2166.221992120463	40.97267304871702	933.0790176852704	2140.44604443006	73.01022389840483	979.4350609433234	2059.517718352218	1099.341249630687	845.4680372035979	2355.048464161047	91.42450661778231	1009.049277942105	2324.315083371861	78.62290658766649	895.8027680977866	1947.718283657098	1083.797556508075	966.2063800448445	2188.17808368955	180.9564013349508	914.034388279936	2145.59292540025	179.7293467177933	949.3145954666749	2170.63215612467	257.6079256077806	896.7488193246138	2130.078732637276	257.77199021455	932.4043085898945	2164.763755404357	647.9919258704479	858.4947786226694	2102.520232371937	621.2767257098826	885.4585611011865	2110.75649611807	741.7055072400084	836.3812630032004	2053.540353360776	718.5928511691969	865.7541315644446	2115.043927643051	1026.951858128393	1148.732364311609	1554.07698908908	250.2291685634403	1075.857545566949	1429.748246199271	406.5444675675327	1057.277899075036	1447.614370978716	392.4957377151592	1097.009736790394	1479.455075718834	414.0929149383475	1062.897329600003	2087.401210430771	1102.327410342806	1170.04830521358	1529.80398799824	207.6313410050122	1021.133136133787	1499.680945884273	227.6591972885236	1135.031309865488	1957.341458412449	1086.769414551522	1071.982583712625	1588.630762788598	397.9649990957559	1122.391215444067	1578.311804367671	436.1950113908497	1089.94224408631	1661.437735481917	436.1626932949551	1141.668928601064	1645.887592351686	475.4358229022163	1109.345944328869	1938.357186036617	622.1561421685435	1172.323092818569	1885.398213830463	637.4305034706102	1122.76310115395	1950.53708524833	729.871477930783	1187.997275330255	1899.675148245761	745.1927529930944	1143.206189046319	
4	0.02	2104.251310529627	1015.505166643914	885.5168822974205	2128.737740203254	23.89183765601016	982.3017344324362	2153.359200862362	40.9880716742956	933.8850968052609	2129.202490463844	73.74683161472477	980.483570783819	2058.798662055864	1092.726457773306	845.046640774863	2343.986023423259	80.52642518023346	1011.785349875838	2313.608311658041	70.07379255985185	898.237157425821	1946.477043620974	1077.008430279858	966.1852599775391	2181.340745785404	176.5475976902936	915.1234810670512	2138.088168004826	176.3532556805883	949.5385478247847	2166.027433691506	253.6111791272223	897.5532476526423	2124.761961228454	254.7882452901885	932.3451945440277	2166.31561484177	644.2147734945726	858.9675850430268	2103.942651528791	617.2120510430743	885.329171174787	2112.209062262809	737.9070536011326	836.9130741165104	2054.82628906737	714.4799492480739	865.6996259183933	2114.986141428032	1022.44348981832	1148.765500418602	1549.830672070722	261.9832353110475	1075.573672299249	1433.24485167738	424.4832452613313	1060.477291061547	1450.663462560143	408.6869089324455	1099.847398415477	1483.302507391493	429.3250838400959	1065.722778566008	2086.17354333286	1097.719362057471	1170.782410478045	1523.175118822378	221.4537018277429	1020.208763184206	1494.811342282995	241.0407649779681	1134.75992116987	1956.465186551166	1080.377674576499	1071.923948348767	1591.47787932622	406.7929491916871	1123.958588325486	1582.778938928089	445.9328114828213	1092.092310185651	1666.185635571981	441.1454147454618	1143.205348546058	1652.343670625767	481.5712311106814	1111.467559125257	1945.178860491395	614.1082788130039	1172.992333467757	1892.496904295909	628.3999961819935	1122.606000285756	1955.139327970179	722.0537989563977	1188.641554833992	1904.34387190537	736.4377488907002	1143.501332452228	
